<svg 
 xmlns="http://www.w3.org/2000/svg"
 xmlns:xlink="http://www.w3.org/1999/xlink"
 width="65.5px" height="65.5px">
<path fill-rule="evenodd"  stroke="rgb(0, 190, 255)" stroke-width="1px" stroke-linecap="butt" stroke-linejoin="miter" opacity="0.302" fill="none"
 d="M32.500,0.500 C50.173,0.500 64.500,14.827 64.500,32.500 C64.500,50.173 50.173,64.500 32.500,64.500 C14.827,64.500 0.500,50.173 0.500,32.500 C0.500,14.827 14.827,0.500 32.500,0.500 Z"/>
<path fill-rule="evenodd"  stroke="rgb(0, 190, 255)" stroke-width="1px" stroke-linecap="butt" stroke-linejoin="miter" opacity="0.302" fill="none"
 d="M59.927,48.974 C58.679,51.045 56.407,52.281 53.988,52.281 L53.823,52.281 C48.510,58.005 40.925,61.591 32.500,61.591 C24.074,61.591 16.490,58.005 11.177,52.281 L11.008,52.281 C8.589,52.281 6.317,51.045 5.069,48.974 C2.169,44.162 0.497,38.527 0.497,32.499 C0.497,26.472 2.169,20.837 5.069,16.025 C6.317,13.953 8.589,12.718 11.008,12.718 L11.178,12.718 C16.491,6.994 24.075,3.409 32.500,3.409 C40.925,3.409 48.509,6.994 53.822,12.718 L53.988,12.718 C56.407,12.718 58.679,13.953 59.927,16.025 C62.827,20.837 64.497,26.472 64.497,32.499 C64.497,38.527 62.827,44.162 59.927,48.974 Z"/>
<path fill-rule="evenodd"  stroke="rgb(0, 190, 255)" stroke-width="1px" stroke-linecap="butt" stroke-linejoin="miter" opacity="0.302" fill="none"
 d="M32.500,10.973 C44.389,10.973 54.027,20.611 54.027,32.500 C54.027,44.389 44.389,54.027 32.500,54.027 C20.611,54.027 10.973,44.389 10.973,32.500 C10.973,20.611 20.611,10.973 32.500,10.973 Z"/>
<path fill-rule="evenodd"  stroke="rgb(0, 190, 255)" stroke-width="1px" stroke-linecap="butt" stroke-linejoin="miter" opacity="0.302" fill="none"
 d="M32.500,15.045 C42.140,15.045 49.954,22.860 49.954,32.500 C49.954,42.140 42.140,49.954 32.500,49.954 C22.860,49.954 15.045,42.140 15.045,32.500 C15.045,22.860 22.860,15.045 32.500,15.045 Z"/>
<path fill-rule="evenodd"  stroke="rgb(0, 190, 255)" stroke-width="1px" stroke-linecap="butt" stroke-linejoin="miter" fill-opacity="0.502" opacity="0.302" fill="none"
 d="M32.500,17.373 C40.854,17.373 47.627,24.145 47.627,32.500 C47.627,40.854 40.854,47.627 32.500,47.627 C24.145,47.627 17.373,40.854 17.373,32.500 C17.373,24.145 24.145,17.373 32.500,17.373 Z"/>
<path fill-rule="evenodd"  stroke="rgb(0, 190, 255)" stroke-width="1px" stroke-linecap="butt" stroke-linejoin="miter" opacity="0.302" fill="none"
 d="M39.999,37.999 C40.020,38.106 40.063,38.205 40.063,38.318 C40.063,39.282 39.282,40.064 38.318,40.064 C38.205,40.064 38.106,40.020 37.999,39.999 C36.457,41.132 34.560,41.809 32.500,41.809 C27.359,41.809 23.191,37.641 23.191,32.500 C23.191,30.641 23.741,28.914 24.680,27.461 C23.795,26.962 23.191,26.024 23.191,24.936 C23.191,23.330 24.493,22.027 26.100,22.027 C27.357,22.027 28.419,22.830 28.825,23.947 C29.953,23.462 31.194,23.191 32.500,23.191 C37.641,23.191 41.809,27.359 41.809,32.500 C41.809,34.560 41.132,36.457 39.999,37.999 Z"/>
<path fill-rule="evenodd"  stroke="rgb(0, 190, 255)" stroke-width="1px" stroke-linecap="butt" stroke-linejoin="miter" opacity="0.302" fill="none"
 d="M32.500,27.845 C35.070,27.845 37.154,29.929 37.154,32.500 C37.154,35.071 35.070,37.154 32.500,37.154 C29.929,37.154 27.845,35.071 27.845,32.500 C27.845,29.929 29.929,27.845 32.500,27.845 Z"/>
<path fill-rule="evenodd"  stroke="rgb(0, 190, 255)" stroke-width="1px" stroke-linecap="butt" stroke-linejoin="miter" opacity="0.302" fill="none"
 d="M26.100,22.027 C27.706,22.027 29.009,23.330 29.009,24.936 C29.009,26.543 27.706,27.845 26.100,27.845 C24.493,27.845 23.191,26.543 23.191,24.936 C23.191,23.330 24.493,22.027 26.100,22.027 Z"/>
<path fill-rule="evenodd"  stroke="rgb(0, 190, 255)" stroke-width="1px" stroke-linecap="butt" stroke-linejoin="miter" opacity="0.302" fill="none"
 d="M38.318,36.573 C39.282,36.573 40.063,37.354 40.063,38.318 C40.063,39.282 39.282,40.064 38.318,40.064 C37.354,40.064 36.573,39.282 36.573,38.318 C36.573,37.354 37.354,36.573 38.318,36.573 Z"/>
<path fill-rule="evenodd"  stroke="rgb(0, 190, 255)" stroke-width="0px" stroke-linecap="butt" stroke-linejoin="miter" opacity="0.302" fill="none"
 d="M32.500,10.973 C44.389,10.973 54.027,20.611 54.027,32.500 C54.027,44.389 44.389,54.027 32.500,54.027 C20.611,54.027 10.973,44.389 10.973,32.500 C10.973,20.611 20.611,10.973 32.500,10.973 Z"/>
</svg>