<svg 
 xmlns="http://www.w3.org/2000/svg"
 xmlns:xlink="http://www.w3.org/1999/xlink"
 width="34px" height="34px">
<path fill-rule="evenodd"  stroke="rgb(0, 190, 255)" stroke-width="1px" stroke-linecap="butt" stroke-linejoin="miter" opacity="0.4" fill="rgb(255, 255, 255)"
 d="M16.500,0.500 C25.337,0.500 32.500,7.663 32.500,16.500 C32.500,25.336 25.337,32.500 16.500,32.500 C7.663,32.500 0.500,25.336 0.500,16.500 C0.500,7.663 7.663,0.500 16.500,0.500 Z"/>
<path fill-rule="evenodd"  stroke="rgb(0, 190, 255)" stroke-width="2px" stroke-linecap="butt" stroke-linejoin="miter" opacity="0.8" fill="rgb(255, 255, 255)"
 d="M16.500,4.260 C23.260,4.260 28.740,9.740 28.740,16.500 C28.740,23.260 23.260,28.740 16.500,28.740 C9.740,28.740 4.260,23.260 4.260,16.500 C4.260,9.740 9.740,4.260 16.500,4.260 Z"/>
<path fill-rule="evenodd"  fill="rgb(0, 190, 255)"
 d="M16.500,8.500 C20.918,8.500 24.500,12.082 24.500,16.500 C24.500,20.918 20.918,24.500 16.500,24.500 C12.082,24.500 8.500,20.918 8.500,16.500 C8.500,12.082 12.082,8.500 16.500,8.500 Z"/>
</svg>