<svg xmlns="http://www.w3.org/2000/svg" xmlns:xlink="http://www.w3.org/1999/xlink" viewBox="0 0 1201 802"><defs><style>.cls-1{fill:url(#未命名的渐变_41);}.cls-2{fill:url(#未命名的渐变_38);}.cls-3{fill:url(#未命名的渐变_9);}.cls-4{fill:url(#未命名的渐变_9-2);}.cls-5{fill:url(#未命名的渐变_9-3);}.cls-6{fill:url(#未命名的渐变_9-4);}</style><linearGradient id="未命名的渐变_41" x1="935.24" y1="-56.92" x2="504.98" y2="307.94" gradientUnits="userSpaceOnUse"><stop offset="0" stop-color="#6ec2eb"/><stop offset="1" stop-color="#89cdf9"/></linearGradient><linearGradient id="未命名的渐变_38" x1="572.9" y1="15.1" x2="229.12" y2="306.63" gradientUnits="userSpaceOnUse"><stop offset="0" stop-color="#aae2fc"/><stop offset="1" stop-color="#89cdf9"/></linearGradient><linearGradient id="未命名的渐变_9" x1="39.06" y1="625.89" x2="951.06" y2="221.89" gradientUnits="userSpaceOnUse"><stop offset="0" stop-color="#fff"/><stop offset="1" stop-color="#89cdf9"/></linearGradient><linearGradient id="未命名的渐变_9-2" x1="1161.48" y1="189.49" x2="503.48" y2="747.49" xlink:href="#未命名的渐变_9"/><linearGradient id="未命名的渐变_9-3" x1="503.8" y1="159.64" x2="3.47" y2="583.94" xlink:href="#未命名的渐变_9"/><linearGradient id="未命名的渐变_9-4" x1="790.44" y1="122.23" x2="1103.38" y2="542.56" xlink:href="#未命名的渐变_9"/></defs><g id="图层_2" data-name="图层 2"><g id="图层_1-2" data-name="图层 1"><polygon class="cls-1" points="534 0 1056 124 652 266 514 232 534 0"/><polygon class="cls-2" points="138 130 534 0 534 302 138 130"/><polygon class="cls-3" points="138 130 138 648 662 802 662 256 138 130"/><polygon class="cls-4" points="662 256 662 802 1056 636 1056 124 662 256"/><polygon class="cls-5" points="138 130 663 257 515 490 0 344 138 130"/><polygon class="cls-6" points="661 256 1057 124 1201 331 799 490 661 256"/></g></g></svg>