<svg 
 xmlns="http://www.w3.org/2000/svg"
 xmlns:xlink="http://www.w3.org/1999/xlink"
 width="398px" height="362px">
<defs>
<linearGradient id="PSgrad_0" x1="0%" x2="100%" y1="0%" y2="0%">
  <stop offset="0%" stop-color="rgb(255,255,255)" stop-opacity="1" />
  <stop offset="100%" stop-color="rgb(255,255,255)" stop-opacity="0.8" />
</linearGradient>

</defs>
<path fill-rule="evenodd"  fill="rgb(0, 190, 255)"
 d="M21.500,-0.000 L321.500,-0.000 L331.500,7.000 L28.500,7.000 L28.500,260.000 L21.500,250.000 L21.500,-0.000 Z"/>
<path fill-rule="evenodd"  fill="url(#PSgrad_0)"
 d="M27.500,6.000 L397.500,6.000 L397.500,270.000 L367.500,296.000 L27.500,296.000 L27.500,6.000 Z"/>
<path fill-rule="evenodd"  stroke="rgb(0, 190, 255)" stroke-width="1px" stroke-linecap="butt" stroke-linejoin="miter" fill="none"
 d="M4.500,355.000 L64.500,294.000 L241.500,294.000 "/>
<path fill-rule="evenodd"  stroke="rgb(0, 190, 255)" stroke-width="1px" stroke-linecap="butt" stroke-linejoin="miter" fill="rgb(255, 255, 255)"
 d="M4.562,352.000 C6.806,352.000 8.625,353.819 8.625,356.062 C8.625,358.306 6.806,360.125 4.562,360.125 C2.319,360.125 0.500,358.306 0.500,356.062 C0.500,353.819 2.319,352.000 4.562,352.000 Z"/>
<path fill-rule="evenodd"  fill="rgb(0, 190, 255)"
 d="M47.500,56.000 L387.500,56.000 L387.500,57.000 L47.500,57.000 L47.500,56.000 Z"/>
<path fill-rule="evenodd"  stroke="rgb(0, 190, 255)" stroke-width="1px" stroke-linecap="butt" stroke-linejoin="miter" fill="none"
 d="M32.500,192.000 L32.500,291.000 L362.500,291.000 L392.500,266.000 L392.500,227.000 "/>
<path fill-rule="evenodd"  fill="rgb(0, 190, 255)"
 d="M83.500,290.000 L79.500,290.000 L81.500,287.000 L85.500,287.000 L83.500,290.000 ZM73.500,290.000 L75.500,287.000 L79.500,287.000 L77.500,290.000 L73.500,290.000 ZM67.500,290.000 L69.500,287.000 L73.500,287.000 L71.500,290.000 L67.500,290.000 ZM61.500,290.000 L63.500,287.000 L67.500,287.000 L65.500,290.000 L61.500,290.000 ZM55.500,290.000 L57.500,287.000 L61.500,287.000 L59.500,290.000 L55.500,290.000 ZM49.500,290.000 L51.500,287.000 L55.500,287.000 L53.500,290.000 L49.500,290.000 ZM43.500,290.000 L45.500,287.000 L49.500,287.000 L47.500,290.000 L43.500,290.000 ZM37.500,290.000 L39.500,287.000 L43.500,287.000 L41.500,290.000 L37.500,290.000 Z"/>
<path fill-rule="evenodd"  fill="rgb(0, 190, 255)"
 d="M343.500,52.000 L347.500,52.000 L345.500,55.000 L341.500,55.000 L343.500,52.000 ZM353.500,52.000 L351.500,55.000 L347.500,55.000 L349.500,52.000 L353.500,52.000 ZM359.500,52.000 L357.500,55.000 L353.500,55.000 L355.500,52.000 L359.500,52.000 ZM365.500,52.000 L363.500,55.000 L359.500,55.000 L361.500,52.000 L365.500,52.000 ZM371.500,52.000 L369.500,55.000 L365.500,55.000 L367.500,52.000 L371.500,52.000 ZM377.500,52.000 L375.500,55.000 L371.500,55.000 L373.500,52.000 L377.500,52.000 ZM383.500,52.000 L381.500,55.000 L377.500,55.000 L379.500,52.000 L383.500,52.000 ZM389.500,52.000 L387.500,55.000 L383.500,55.000 L385.500,52.000 L389.500,52.000 Z"/>
</svg>