<svg 
 xmlns="http://www.w3.org/2000/svg"
 xmlns:xlink="http://www.w3.org/1999/xlink"
 width="328px" height="332px">
<defs>
<linearGradient id="PSgrad_0" x1="0%" x2="100%" y1="0%" y2="0%">
  <stop offset="0%" stop-color="rgb(255,255,255)" stop-opacity="1" />
  <stop offset="100%" stop-color="rgb(255,255,255)" stop-opacity="0.8" />
</linearGradient>

</defs>
<path fill-rule="evenodd"  fill="rgb(0, 190, 255)"
 d="M11.500,-0.000 L231.500,-0.000 L241.500,7.000 L18.500,7.000 L18.500,240.000 L11.500,230.000 L11.500,-0.000 Z"/>
<path fill-rule="evenodd"  fill="url(#PSgrad_0)"
 d="M17.500,6.000 L327.500,6.000 L327.500,250.000 L297.500,276.000 L17.500,276.000 L17.500,6.000 Z"/>
<path fill-rule="evenodd"  stroke="rgb(0, 190, 255)" stroke-width="1px" stroke-linecap="butt" stroke-linejoin="miter" fill="none"
 d="M4.500,325.000 L54.500,274.000 L231.500,274.000 "/>
<path fill-rule="evenodd"  stroke="rgb(0, 190, 255)" stroke-width="1px" stroke-linecap="butt" stroke-linejoin="miter" fill="rgb(255, 255, 255)"
 d="M4.562,322.000 C6.806,322.000 8.625,323.819 8.625,326.062 C8.625,328.306 6.806,330.125 4.562,330.125 C2.319,330.125 0.500,328.306 0.500,326.062 C0.500,323.819 2.319,322.000 4.562,322.000 Z"/>
<path fill-rule="evenodd"  fill="rgb(0, 190, 255)"
 d="M37.500,56.000 L317.500,56.000 L317.500,57.000 L37.500,57.000 L37.500,56.000 Z"/>
<path fill-rule="evenodd"  stroke="rgb(0, 190, 255)" stroke-width="1px" stroke-linecap="butt" stroke-linejoin="miter" fill="none"
 d="M22.500,172.000 L22.500,271.000 L292.500,271.000 L322.500,246.000 L322.500,127.000 "/>
<path fill-rule="evenodd"  fill="rgb(0, 190, 255)"
 d="M73.500,270.000 L69.500,270.000 L71.500,267.000 L75.500,267.000 L73.500,270.000 ZM63.500,270.000 L65.500,267.000 L69.500,267.000 L67.500,270.000 L63.500,270.000 ZM57.500,270.000 L59.500,267.000 L63.500,267.000 L61.500,270.000 L57.500,270.000 ZM51.500,270.000 L53.500,267.000 L57.500,267.000 L55.500,270.000 L51.500,270.000 ZM45.500,270.000 L47.500,267.000 L51.500,267.000 L49.500,270.000 L45.500,270.000 ZM39.500,270.000 L41.500,267.000 L45.500,267.000 L43.500,270.000 L39.500,270.000 ZM33.500,270.000 L35.500,267.000 L39.500,267.000 L37.500,270.000 L33.500,270.000 ZM27.500,270.000 L29.500,267.000 L33.500,267.000 L31.500,270.000 L27.500,270.000 Z"/>
<path fill-rule="evenodd"  fill="rgb(0, 190, 255)"
 d="M273.500,52.000 L277.500,52.000 L275.500,55.000 L271.500,55.000 L273.500,52.000 ZM283.500,52.000 L281.500,55.000 L277.500,55.000 L279.500,52.000 L283.500,52.000 ZM289.500,52.000 L287.500,55.000 L283.500,55.000 L285.500,52.000 L289.500,52.000 ZM295.500,52.000 L293.500,55.000 L289.500,55.000 L291.500,52.000 L295.500,52.000 ZM301.500,52.000 L299.500,55.000 L295.500,55.000 L297.500,52.000 L301.500,52.000 ZM307.500,52.000 L305.500,55.000 L301.500,55.000 L303.500,52.000 L307.500,52.000 ZM313.500,52.000 L311.500,55.000 L307.500,55.000 L309.500,52.000 L313.500,52.000 ZM319.500,52.000 L317.500,55.000 L313.500,55.000 L315.500,52.000 L319.500,52.000 Z"/>
</svg>