<?xml version="1.0" standalone="no"?><!DOCTYPE svg PUBLIC "-//W3C//DTD SVG 1.1//EN" "http://www.w3.org/Graphics/SVG/1.1/DTD/svg11.dtd"><svg t="1658454021677" class="icon" viewBox="0 0 1024 1024" version="1.1" xmlns="http://www.w3.org/2000/svg" p-id="3406" xmlns:xlink="http://www.w3.org/1999/xlink" width="200" height="200"><defs><style type="text/css">@font-face { font-family: feedback-iconfont; src: url("//at.alicdn.com/t/font_1031158_u69w8yhxdu.woff2?t=1630033759944") format("woff2"), url("//at.alicdn.com/t/font_1031158_u69w8yhxdu.woff?t=1630033759944") format("woff"), url("//at.alicdn.com/t/font_1031158_u69w8yhxdu.ttf?t=1630033759944") format("truetype"); }
</style></defs><path d="M402.545 381.807l146.286-107.812c23.15-17.049 56.053-12.061 73.087 11.088l305.413 414.446c17.049 23.135 12.074 56.039-11.074 73.087L675.275 950.195c-23.148 17.05-56.025 12.076-73.087-11.074L404.934 671.448 296.79 524.661l-88.915-120.636c-22.551-30.625-15.964-74.13 14.645-96.695l25.442-18.745c30.611-22.565 74.13-15.966 96.695 14.645l57.888 78.577zM138.428 184.026c-10.546 11.629-28.527 12.518-40.171 1.959-11.629-10.533-12.518-28.512-1.972-40.157a270.47 270.47 0 0 1 24.191-23.567C169.317 80.257 230.274 58.483 293.093 59.9c62.402 1.417 126.305 25.678 181.497 75.728 10.378 9.421 20.495 19.8 30.263 31.152 10.213 11.922 8.852 29.876-3.056 40.102-11.922 10.213-29.874 8.852-40.102-3.056-8.115-9.449-16.576-18.134-25.303-26.054-44.548-40.393-95.389-59.957-144.55-61.069-48.758-1.097-96.195 15.91-134.337 48.715a212.982 212.982 0 0 0-19.077 18.608z m72.157 62.722a113.316 113.316 0 0 1 10.254-10.005c20.425-17.562 45.77-26.664 71.781-26.081 26.414 0.598 53.87 11.228 78.09 33.182a161.911 161.911 0 0 1 13.978 14.395c10.226 11.908 28.165 13.27 40.087 3.056 11.922-10.226 13.284-28.165 3.07-40.087-6.128-7.114-12.45-13.617-18.94-19.509-34.863-31.61-75.38-46.937-115.05-47.826-40.059-0.916-78.924 12.965-110.035 39.712a173.519 173.519 0 0 0-15.381 14.966c-10.548 11.645-9.671 29.624 1.972 40.17 11.648 10.545 29.628 9.656 40.174-1.973z m157.569 267.548l83.467 113.272 229.586-169.199-83.467-113.257-229.586 169.184z m141.242 129.681c-17.813 13.146-21.62 38.226-8.489 56.053 13.13 17.813 38.225 21.62 56.037 8.49 17.828-13.131 21.634-38.226 8.49-56.053-13.129-17.813-38.209-21.62-56.038-8.49z m279.763 40.379c-17.828 13.131-21.622 38.225-8.49 56.039 13.13 17.814 38.225 21.62 56.039 8.49 17.813-13.131 21.62-38.225 8.489-56.039-13.13-17.812-38.225-21.62-56.038-8.49z m-79.966 58.915c-17.827 13.131-21.62 38.239-8.489 56.053 13.13 17.814 38.225 21.62 56.037 8.49 17.814-13.144 21.622-38.225 8.49-56.053-13.129-17.813-38.224-21.62-56.038-8.49z m-82.063 60.471c-17.828 13.131-21.622 38.226-8.49 56.053 13.13 17.814 38.225 21.62 56.039 8.49 17.827-13.132 21.62-38.225 8.489-56.053-13.131-17.813-38.211-21.606-56.038-8.49zM729.313 603.14c-17.827 13.131-21.62 38.225-8.49 56.053 13.131 17.813 38.225 21.606 56.039 8.489 17.827-13.13 21.62-38.225 8.49-56.052-13.131-17.814-38.212-21.62-56.039-8.49z m-79.965 58.929c-17.814 13.131-21.62 38.212-8.49 56.039 13.131 17.813 38.225 21.62 56.039 8.49 17.827-13.132 21.62-38.225 8.503-56.039-13.145-17.827-38.226-21.62-56.052-8.49z m-82.065 60.471c-17.827 13.131-21.62 38.225-8.49 56.039 13.131 17.813 38.225 21.62 56.039 8.49 17.827-13.132 21.62-38.225 8.49-56.039-13.131-17.827-38.225-21.62-56.039-8.49z m104.13-197.963c-17.8 13.146-21.607 38.226-8.476 56.053 13.13 17.813 38.225 21.62 56.037 8.49 17.828-13.131 21.622-38.226 8.49-56.039-13.129-17.826-38.224-21.634-56.051-8.504z m-79.953 58.929c-17.827 13.131-21.62 38.226-8.49 56.053 13.131 17.813 38.226 21.62 56.053 8.49 17.813-13.146 21.607-38.226 8.476-56.053-13.131-17.813-38.224-21.62-56.039-8.49z" p-id="3407" fill="#6fccfc"></path></svg>