<svg 
 xmlns="http://www.w3.org/2000/svg"
 xmlns:xlink="http://www.w3.org/1999/xlink"
 width="477.5px" height="314px">
<path fill-rule="evenodd"  stroke="rgb(0, 190, 255)" stroke-width="1px" stroke-linecap="butt" stroke-linejoin="miter" fill="rgb(255, 255, 255)"
 d="M0.500,33.000 L476.500,33.000 L476.500,313.000 L0.500,313.000 L0.500,33.000 Z"/>
<path fill-rule="evenodd"  stroke="rgb(0, 190, 255)" stroke-width="1px" stroke-dasharray="1, 1" stroke-linecap="butt" stroke-linejoin="miter" fill="rgb(255, 255, 255)"
 d="M226.500,43.000 L467.500,43.000 L467.500,304.000 L9.500,304.000 L9.500,42.000 L140.500,42.000 "/>
<path fill-rule="evenodd"  stroke="rgb(0, 190, 255)" stroke-width="1px" stroke-linecap="butt" stroke-linejoin="miter" fill="rgb(0, 190, 255)"
 d="M9.500,42.000 L13.500,42.000 L13.500,46.000 L9.500,46.000 L9.500,42.000 Z"/>
<path fill-rule="evenodd"  stroke="rgb(0, 190, 255)" stroke-width="1px" stroke-linecap="butt" stroke-linejoin="miter" fill="rgb(0, 190, 255)"
 d="M12.500,251.000 L12.500,247.000 L16.500,247.000 L16.500,251.000 L12.500,251.000 ZM12.500,239.000 L16.500,239.000 L16.500,243.000 L12.500,243.000 L12.500,239.000 ZM12.500,231.000 L16.500,231.000 L16.500,235.000 L12.500,235.000 L12.500,231.000 ZM12.500,223.000 L16.500,223.000 L16.500,227.000 L12.500,227.000 L12.500,223.000 ZM12.500,215.000 L16.500,215.000 L16.500,219.000 L12.500,219.000 L12.500,215.000 ZM12.500,207.000 L16.500,207.000 L16.500,211.000 L12.500,211.000 L12.500,207.000 ZM12.500,199.000 L16.500,199.000 L16.500,203.000 L12.500,203.000 L12.500,199.000 ZM12.500,191.000 L16.500,191.000 L16.500,195.000 L12.500,195.000 L12.500,191.000 ZM12.500,183.000 L16.500,183.000 L16.500,187.000 L12.500,187.000 L12.500,183.000 ZM12.500,175.000 L16.500,175.000 L16.500,179.000 L12.500,179.000 L12.500,175.000 ZM12.500,167.000 L16.500,167.000 L16.500,171.000 L12.500,171.000 L12.500,167.000 ZM12.500,159.000 L16.500,159.000 L16.500,163.000 L12.500,163.000 L12.500,159.000 ZM12.500,151.000 L16.500,151.000 L16.500,155.000 L12.500,155.000 L12.500,151.000 ZM12.500,143.000 L16.500,143.000 L16.500,147.000 L12.500,147.000 L12.500,143.000 ZM12.500,135.000 L16.500,135.000 L16.500,139.000 L12.500,139.000 L12.500,135.000 ZM12.500,127.000 L16.500,127.000 L16.500,131.000 L12.500,131.000 L12.500,127.000 ZM12.500,119.000 L16.500,119.000 L16.500,123.000 L12.500,123.000 L12.500,119.000 ZM12.500,111.000 L16.500,111.000 L16.500,115.000 L12.500,115.000 L12.500,111.000 ZM12.500,103.000 L16.500,103.000 L16.500,107.000 L12.500,107.000 L12.500,103.000 ZM12.500,95.000 L16.500,95.000 L16.500,99.000 L12.500,99.000 L12.500,95.000 Z"/>
<path fill-rule="evenodd"  stroke="rgb(0, 190, 255)" stroke-width="1px" stroke-linecap="butt" stroke-linejoin="miter" fill="rgb(0, 190, 255)"
 d="M460.500,251.000 L460.500,247.000 L464.500,247.000 L464.500,251.000 L460.500,251.000 ZM460.500,239.000 L464.500,239.000 L464.500,243.000 L460.500,243.000 L460.500,239.000 ZM460.500,231.000 L464.500,231.000 L464.500,235.000 L460.500,235.000 L460.500,231.000 ZM460.500,223.000 L464.500,223.000 L464.500,227.000 L460.500,227.000 L460.500,223.000 ZM460.500,215.000 L464.500,215.000 L464.500,219.000 L460.500,219.000 L460.500,215.000 ZM460.500,207.000 L464.500,207.000 L464.500,211.000 L460.500,211.000 L460.500,207.000 ZM460.500,199.000 L464.500,199.000 L464.500,203.000 L460.500,203.000 L460.500,199.000 ZM460.500,191.000 L464.500,191.000 L464.500,195.000 L460.500,195.000 L460.500,191.000 ZM460.500,183.000 L464.500,183.000 L464.500,187.000 L460.500,187.000 L460.500,183.000 ZM460.500,175.000 L464.500,175.000 L464.500,179.000 L460.500,179.000 L460.500,175.000 ZM460.500,167.000 L464.500,167.000 L464.500,171.000 L460.500,171.000 L460.500,167.000 ZM460.500,159.000 L464.500,159.000 L464.500,163.000 L460.500,163.000 L460.500,159.000 ZM460.500,151.000 L464.500,151.000 L464.500,155.000 L460.500,155.000 L460.500,151.000 ZM460.500,143.000 L464.500,143.000 L464.500,147.000 L460.500,147.000 L460.500,143.000 ZM460.500,135.000 L464.500,135.000 L464.500,139.000 L460.500,139.000 L460.500,135.000 ZM460.500,127.000 L464.500,127.000 L464.500,131.000 L460.500,131.000 L460.500,127.000 ZM460.500,119.000 L464.500,119.000 L464.500,123.000 L460.500,123.000 L460.500,119.000 ZM460.500,111.000 L464.500,111.000 L464.500,115.000 L460.500,115.000 L460.500,111.000 ZM460.500,103.000 L464.500,103.000 L464.500,107.000 L460.500,107.000 L460.500,103.000 ZM460.500,95.000 L464.500,95.000 L464.500,99.000 L460.500,99.000 L460.500,95.000 Z"/>
<path fill-rule="evenodd"  fill="rgb(0, 190, 255)"
 d="M67.500,41.000 L475.500,41.000 L475.500,45.000 L67.500,45.000 L67.500,41.000 Z"/>
<path fill-rule="evenodd"  fill="rgb(0, 190, 255)"
 d="M475.500,200.000 L475.500,312.000 L25.500,312.000 L25.500,308.000 L471.500,308.000 L471.500,200.000 L475.500,200.000 Z"/>
<path fill-rule="evenodd"  stroke="rgb(0, 190, 255)" stroke-width="1px" stroke-linecap="butt" stroke-linejoin="miter" fill="rgb(0, 190, 255)"
 d="M9.500,300.000 L13.500,300.000 L13.500,304.000 L9.500,304.000 L9.500,300.000 Z"/>
<path fill-rule="evenodd"  stroke="rgb(0, 190, 255)" stroke-width="1px" stroke-linecap="butt" stroke-linejoin="miter" fill="rgb(0, 190, 255)"
 d="M463.500,300.000 L467.500,300.000 L467.500,304.000 L463.500,304.000 L463.500,300.000 Z"/>
<path fill-rule="evenodd"  fill="rgb(0, 190, 255)"
 d="M0.500,-0.000 L256.500,-0.000 L296.500,34.000 L0.500,34.000 L0.500,-0.000 Z"/>
</svg>