<svg 
 xmlns="http://www.w3.org/2000/svg"
 xmlns:xlink="http://www.w3.org/1999/xlink"
 width="24px" height="24px">
<path fill-rule="evenodd"  fill="rgb(0, 190, 255)"
 d="M23.989,13.726 C23.871,14.749 23.621,15.753 23.254,16.708 C23.032,17.288 22.485,17.674 21.871,17.685 L20.144,17.715 C19.766,18.294 19.329,18.833 18.836,19.320 L19.179,20.969 C19.311,21.593 19.047,22.236 18.517,22.580 C17.640,23.151 16.694,23.603 15.707,23.926 C15.555,23.975 15.399,24.000 15.244,24.000 C14.801,24.000 14.372,23.804 14.080,23.445 L12.978,22.098 C12.654,22.131 12.327,22.147 12.003,22.147 C11.678,22.147 11.351,22.131 11.027,22.098 L9.925,23.445 C9.630,23.801 9.201,24.000 8.759,24.000 C8.603,24.000 8.448,23.975 8.295,23.926 C7.308,23.605 6.362,23.151 5.485,22.580 C4.957,22.234 4.692,21.592 4.823,20.969 L5.166,19.320 C4.673,18.833 4.236,18.297 3.858,17.715 L2.132,17.685 C1.515,17.677 0.968,17.290 0.746,16.708 C0.378,15.750 0.132,14.749 0.011,13.726 C-0.064,13.083 0.266,12.460 0.837,12.170 L2.282,11.438 C2.349,10.657 2.507,9.890 2.756,9.147 L1.700,7.762 C1.322,7.264 1.279,6.584 1.593,6.043 C2.086,5.194 2.681,4.405 3.359,3.700 C3.652,3.398 4.043,3.237 4.443,3.237 C4.654,3.237 4.871,3.281 5.073,3.376 L6.595,4.086 C7.300,3.610 8.070,3.229 8.871,2.954 L9.287,1.243 C9.437,0.623 9.952,0.163 10.579,0.087 C11.062,0.029 11.539,-0.000 12.000,-0.000 C12.461,-0.000 12.938,0.029 13.421,0.087 C14.048,0.160 14.563,0.623 14.713,1.243 L15.128,2.954 C15.930,3.232 16.699,3.613 17.405,4.086 L18.930,3.376 C19.131,3.284 19.348,3.237 19.560,3.237 C19.959,3.237 20.351,3.398 20.643,3.700 C21.324,4.405 21.916,5.194 22.410,6.043 C22.723,6.584 22.680,7.264 22.302,7.762 L21.246,9.147 C21.493,9.890 21.651,10.654 21.718,11.438 L23.163,12.170 C23.734,12.461 24.064,13.084 23.989,13.726 ZM15.244,22.465 C16.115,22.180 16.941,21.780 17.699,21.287 L17.391,19.813 C16.477,20.487 15.429,20.999 14.287,21.296 L15.244,22.465 ZM8.759,22.465 L9.710,21.301 C8.603,21.013 7.555,20.512 6.609,19.815 L6.300,21.287 C7.059,21.780 7.885,22.180 8.759,22.465 ZM2.829,12.877 L1.512,13.544 C1.620,14.453 1.839,15.326 2.156,16.150 L3.654,16.175 C3.247,15.280 2.979,14.314 2.866,13.304 C2.850,13.163 2.839,13.019 2.829,12.877 ZM4.440,4.772 C3.847,5.387 3.327,6.075 2.896,6.823 L3.810,8.021 C4.089,7.468 4.424,6.940 4.812,6.445 C5.110,6.067 5.432,5.716 5.775,5.395 L4.440,4.772 ZM13.244,1.613 C12.836,1.564 12.421,1.537 12.000,1.537 C11.579,1.537 11.164,1.564 10.756,1.613 L10.399,3.074 C10.587,3.041 10.777,3.012 10.968,2.990 C11.852,2.886 12.734,2.916 13.598,3.071 L13.244,1.613 ZM19.560,4.772 L17.228,5.858 C16.268,5.060 15.123,4.481 13.868,4.187 L13.863,4.171 C12.954,3.953 12.021,3.896 11.080,4.005 C10.759,4.043 10.442,4.100 10.131,4.173 L10.129,4.187 C9.070,4.437 8.088,4.892 7.231,5.506 L7.054,5.637 L7.014,5.670 C6.493,6.075 6.016,6.549 5.598,7.082 C4.236,8.815 3.620,10.986 3.866,13.190 C4.110,15.397 5.185,17.372 6.896,18.754 C8.606,20.136 10.745,20.759 12.917,20.512 C17.402,19.998 20.638,15.878 20.131,11.326 C20.000,10.132 19.624,9.005 19.016,7.982 C18.874,7.740 18.951,7.425 19.190,7.280 C19.429,7.136 19.740,7.215 19.882,7.457 C19.992,7.642 20.091,7.830 20.187,8.021 L21.104,6.821 C20.673,6.075 20.152,5.387 19.560,4.772 ZM21.169,12.874 C21.093,14.039 20.807,15.155 20.340,16.175 L21.844,16.150 C22.160,15.326 22.380,14.453 22.485,13.544 L21.169,12.874 ZM12.000,19.375 C10.882,19.375 9.812,19.116 8.823,18.605 C8.576,18.477 8.477,18.167 8.603,17.916 C8.729,17.666 9.032,17.565 9.282,17.693 C10.126,18.128 11.040,18.352 12.000,18.352 C15.308,18.352 18.000,15.617 18.000,12.260 C18.000,10.779 17.472,9.354 16.509,8.244 C16.324,8.031 16.346,7.710 16.555,7.523 C16.767,7.335 17.083,7.357 17.268,7.569 C18.391,8.864 19.008,10.532 19.008,12.260 C19.008,16.180 15.866,19.372 12.000,19.375 ZM12.000,17.152 C9.340,17.152 7.180,14.956 7.180,12.260 C7.180,9.561 9.340,7.368 12.000,7.368 C14.659,7.368 16.820,9.563 16.820,12.260 C16.820,14.956 14.659,17.152 12.000,17.152 ZM12.000,8.902 C10.174,8.902 8.692,10.409 8.692,12.260 C8.692,14.110 10.177,15.617 12.000,15.617 C13.826,15.617 15.308,14.110 15.308,12.260 C15.308,10.407 13.823,8.902 12.000,8.902 ZM13.874,6.472 C13.271,6.271 12.641,6.170 12.000,6.170 C8.692,6.170 6.000,8.902 6.000,12.260 C6.000,13.655 6.453,14.967 7.306,16.052 C7.480,16.273 7.442,16.594 7.225,16.771 C7.134,16.847 7.022,16.882 6.912,16.882 C6.764,16.882 6.617,16.817 6.518,16.689 C5.534,15.438 4.992,13.865 4.992,12.260 C4.992,8.336 8.134,5.145 12.000,5.147 C12.748,5.147 13.482,5.267 14.187,5.501 C14.453,5.588 14.598,5.877 14.509,6.146 C14.423,6.413 14.139,6.562 13.874,6.472 Z"/>
</svg>