<svg 
 xmlns="http://www.w3.org/2000/svg"
 xmlns:xlink="http://www.w3.org/1999/xlink"
 width="477.5px" height="564px">
<path fill-rule="evenodd"  stroke="rgb(0, 190, 255)" stroke-width="1px" stroke-linecap="butt" stroke-linejoin="miter" fill="rgb(255, 255, 255)"
 d="M0.500,33.000 L476.500,33.000 L476.500,563.000 L0.500,563.000 L0.500,33.000 Z"/>
<path fill-rule="evenodd"  stroke="rgb(0, 190, 255)" stroke-width="1px" stroke-dasharray="1, 1" stroke-linecap="butt" stroke-linejoin="miter" fill="rgb(255, 255, 255)"
 d="M226.500,43.000 L467.500,43.000 L467.500,554.000 L9.500,554.000 L9.500,42.000 L140.500,42.000 "/>
<path fill-rule="evenodd"  stroke="rgb(0, 190, 255)" stroke-width="1px" stroke-linecap="butt" stroke-linejoin="miter" fill="rgb(0, 190, 255)"
 d="M9.500,42.000 L13.500,42.000 L13.500,46.000 L9.500,46.000 L9.500,42.000 Z"/>
<path fill-rule="evenodd"  stroke="rgb(0, 190, 255)" stroke-width="1px" stroke-linecap="butt" stroke-linejoin="miter" fill="rgb(0, 190, 255)"
 d="M217.500,45.000 L217.500,41.000 L221.500,41.000 L221.500,45.000 L217.500,45.000 ZM209.500,41.000 L213.500,41.000 L213.500,45.000 L209.500,45.000 L209.500,41.000 ZM201.500,41.000 L205.500,41.000 L205.500,45.000 L201.500,45.000 L201.500,41.000 ZM193.500,41.000 L197.500,41.000 L197.500,45.000 L193.500,45.000 L193.500,41.000 ZM185.500,41.000 L189.500,41.000 L189.500,45.000 L185.500,45.000 L185.500,41.000 ZM177.500,41.000 L181.500,41.000 L181.500,45.000 L177.500,45.000 L177.500,41.000 ZM169.500,41.000 L173.500,41.000 L173.500,45.000 L169.500,45.000 L169.500,41.000 ZM161.500,41.000 L165.500,41.000 L165.500,45.000 L161.500,45.000 L161.500,41.000 ZM153.500,41.000 L157.500,41.000 L157.500,45.000 L153.500,45.000 L153.500,41.000 ZM145.500,41.000 L149.500,41.000 L149.500,45.000 L145.500,45.000 L145.500,41.000 ZM137.500,41.000 L141.500,41.000 L141.500,45.000 L137.500,45.000 L137.500,41.000 ZM129.500,41.000 L133.500,41.000 L133.500,45.000 L129.500,45.000 L129.500,41.000 ZM121.500,41.000 L125.500,41.000 L125.500,45.000 L121.500,45.000 L121.500,41.000 ZM113.500,41.000 L117.500,41.000 L117.500,45.000 L113.500,45.000 L113.500,41.000 ZM105.500,41.000 L109.500,41.000 L109.500,45.000 L105.500,45.000 L105.500,41.000 ZM97.500,41.000 L101.500,41.000 L101.500,45.000 L97.500,45.000 L97.500,41.000 ZM89.500,41.000 L93.500,41.000 L93.500,45.000 L89.500,45.000 L89.500,41.000 ZM81.500,41.000 L85.500,41.000 L85.500,45.000 L81.500,45.000 L81.500,41.000 ZM73.500,41.000 L77.500,41.000 L77.500,45.000 L73.500,45.000 L73.500,41.000 ZM65.500,41.000 L69.500,41.000 L69.500,45.000 L65.500,45.000 L65.500,41.000 Z"/>
<path fill-rule="evenodd"  stroke="rgb(0, 190, 255)" stroke-width="1px" stroke-linecap="butt" stroke-linejoin="miter" fill="rgb(0, 190, 255)"
 d="M12.500,363.000 L12.500,359.000 L16.500,359.000 L16.500,363.000 L12.500,363.000 ZM12.500,351.000 L16.500,351.000 L16.500,355.000 L12.500,355.000 L12.500,351.000 ZM12.500,343.000 L16.500,343.000 L16.500,347.000 L12.500,347.000 L12.500,343.000 ZM12.500,335.000 L16.500,335.000 L16.500,339.000 L12.500,339.000 L12.500,335.000 ZM12.500,327.000 L16.500,327.000 L16.500,331.000 L12.500,331.000 L12.500,327.000 ZM12.500,319.000 L16.500,319.000 L16.500,323.000 L12.500,323.000 L12.500,319.000 ZM12.500,311.000 L16.500,311.000 L16.500,315.000 L12.500,315.000 L12.500,311.000 ZM12.500,303.000 L16.500,303.000 L16.500,307.000 L12.500,307.000 L12.500,303.000 ZM12.500,295.000 L16.500,295.000 L16.500,299.000 L12.500,299.000 L12.500,295.000 ZM12.500,287.000 L16.500,287.000 L16.500,291.000 L12.500,291.000 L12.500,287.000 ZM12.500,279.000 L16.500,279.000 L16.500,283.000 L12.500,283.000 L12.500,279.000 ZM12.500,271.000 L16.500,271.000 L16.500,275.000 L12.500,275.000 L12.500,271.000 ZM12.500,263.000 L16.500,263.000 L16.500,267.000 L12.500,267.000 L12.500,263.000 ZM12.500,255.000 L16.500,255.000 L16.500,259.000 L12.500,259.000 L12.500,255.000 ZM12.500,247.000 L16.500,247.000 L16.500,251.000 L12.500,251.000 L12.500,247.000 ZM12.500,239.000 L16.500,239.000 L16.500,243.000 L12.500,243.000 L12.500,239.000 ZM12.500,231.000 L16.500,231.000 L16.500,235.000 L12.500,235.000 L12.500,231.000 ZM12.500,223.000 L16.500,223.000 L16.500,227.000 L12.500,227.000 L12.500,223.000 ZM12.500,215.000 L16.500,215.000 L16.500,219.000 L12.500,219.000 L12.500,215.000 ZM12.500,207.000 L16.500,207.000 L16.500,211.000 L12.500,211.000 L12.500,207.000 Z"/>
<path fill-rule="evenodd"  stroke="rgb(0, 190, 255)" stroke-width="1px" stroke-linecap="butt" stroke-linejoin="miter" fill="rgb(0, 190, 255)"
 d="M460.500,363.000 L460.500,359.000 L464.500,359.000 L464.500,363.000 L460.500,363.000 ZM460.500,351.000 L464.500,351.000 L464.500,355.000 L460.500,355.000 L460.500,351.000 ZM460.500,343.000 L464.500,343.000 L464.500,347.000 L460.500,347.000 L460.500,343.000 ZM460.500,335.000 L464.500,335.000 L464.500,339.000 L460.500,339.000 L460.500,335.000 ZM460.500,327.000 L464.500,327.000 L464.500,331.000 L460.500,331.000 L460.500,327.000 ZM460.500,319.000 L464.500,319.000 L464.500,323.000 L460.500,323.000 L460.500,319.000 ZM460.500,311.000 L464.500,311.000 L464.500,315.000 L460.500,315.000 L460.500,311.000 ZM460.500,303.000 L464.500,303.000 L464.500,307.000 L460.500,307.000 L460.500,303.000 ZM460.500,295.000 L464.500,295.000 L464.500,299.000 L460.500,299.000 L460.500,295.000 ZM460.500,287.000 L464.500,287.000 L464.500,291.000 L460.500,291.000 L460.500,287.000 ZM460.500,279.000 L464.500,279.000 L464.500,283.000 L460.500,283.000 L460.500,279.000 ZM460.500,271.000 L464.500,271.000 L464.500,275.000 L460.500,275.000 L460.500,271.000 ZM460.500,263.000 L464.500,263.000 L464.500,267.000 L460.500,267.000 L460.500,263.000 ZM460.500,255.000 L464.500,255.000 L464.500,259.000 L460.500,259.000 L460.500,255.000 ZM460.500,247.000 L464.500,247.000 L464.500,251.000 L460.500,251.000 L460.500,247.000 ZM460.500,239.000 L464.500,239.000 L464.500,243.000 L460.500,243.000 L460.500,239.000 ZM460.500,231.000 L464.500,231.000 L464.500,235.000 L460.500,235.000 L460.500,231.000 ZM460.500,223.000 L464.500,223.000 L464.500,227.000 L460.500,227.000 L460.500,223.000 ZM460.500,215.000 L464.500,215.000 L464.500,219.000 L460.500,219.000 L460.500,215.000 ZM460.500,207.000 L464.500,207.000 L464.500,211.000 L460.500,211.000 L460.500,207.000 Z"/>
<path fill-rule="evenodd"  fill="rgb(0, 190, 255)"
 d="M67.500,41.000 L475.500,41.000 L475.500,45.000 L67.500,45.000 L67.500,41.000 Z"/>
<path fill-rule="evenodd"  fill="rgb(0, 190, 255)"
 d="M475.500,450.000 L475.500,562.000 L25.500,562.000 L25.500,558.000 L471.500,558.000 L471.500,450.000 L475.500,450.000 Z"/>
<path fill-rule="evenodd"  stroke="rgb(0, 190, 255)" stroke-width="1px" stroke-linecap="butt" stroke-linejoin="miter" fill="rgb(0, 190, 255)"
 d="M9.500,550.000 L13.500,550.000 L13.500,554.000 L9.500,554.000 L9.500,550.000 Z"/>
<path fill-rule="evenodd"  stroke="rgb(0, 190, 255)" stroke-width="1px" stroke-linecap="butt" stroke-linejoin="miter" fill="rgb(0, 190, 255)"
 d="M463.500,550.000 L467.500,550.000 L467.500,554.000 L463.500,554.000 L463.500,550.000 Z"/>
<path fill-rule="evenodd"  fill="rgb(0, 190, 255)"
 d="M0.500,-0.000 L256.500,-0.000 L296.500,34.000 L0.500,34.000 L0.500,-0.000 Z"/>
</svg>