<svg 
 xmlns="http://www.w3.org/2000/svg"
 xmlns:xlink="http://www.w3.org/1999/xlink"
 width="20px" height="20px">
<path fill-rule="evenodd"  fill="rgb(77, 190, 255)"
 d="M14.615,13.846 L10.772,9.998 L14.615,6.154 L20.000,6.154 L20.000,13.846 L14.615,13.846 ZM15.384,8.461 L15.384,11.538 L18.461,10.000 L15.384,8.461 ZM6.154,5.384 L6.154,-0.000 L13.846,-0.000 L13.846,5.384 L9.998,9.228 L6.154,5.384 ZM10.000,1.538 L8.461,4.615 L11.538,4.615 L10.000,1.538 ZM5.385,13.846 L-0.000,13.846 L-0.000,6.154 L5.385,6.154 L9.228,10.002 L5.385,13.846 ZM4.615,8.461 L1.538,10.000 L4.615,11.538 L4.615,8.461 ZM13.846,14.615 L13.846,20.000 L6.154,20.000 L6.154,14.615 L10.002,10.772 L13.846,14.615 ZM10.000,18.461 L11.538,15.384 L8.461,15.384 L10.000,18.461 Z"/>
</svg>