<svg 
 xmlns="http://www.w3.org/2000/svg"
 xmlns:xlink="http://www.w3.org/1999/xlink"
 width="18px" height="18px">
<path fill-rule="evenodd"  fill="rgb(0, 190, 255)"
 d="M10.996,17.999 L10.996,15.999 L14.508,15.999 L10.004,11.496 L11.493,10.007 L15.996,14.510 L15.996,10.999 L17.997,10.999 L17.997,17.999 L10.996,17.999 ZM15.996,3.488 L11.493,7.991 L10.004,6.503 L14.508,1.999 L10.996,1.999 L10.996,-0.001 L17.997,-0.001 L17.997,6.999 L15.996,6.999 L15.996,3.488 ZM-0.004,17.999 L-0.004,10.999 L1.996,10.999 L1.996,14.510 L6.499,10.007 L7.989,11.496 L3.485,15.999 L6.996,15.999 L6.996,17.999 L-0.004,17.999 ZM7.989,6.503 L6.499,7.991 L1.996,3.488 L1.996,6.999 L-0.004,6.999 L-0.004,-0.001 L6.996,-0.001 L6.996,1.999 L3.485,1.999 L7.989,6.503 Z"/>
</svg>