<svg 
 xmlns="http://www.w3.org/2000/svg"
 xmlns:xlink="http://www.w3.org/1999/xlink"
 width="1537.5px" height="924px">
<path fill-rule="evenodd"  stroke="rgb(0, 190, 255)" stroke-width="1px" stroke-linecap="butt" stroke-linejoin="miter" fill="rgb(255, 255, 255)"
 d="M0.500,33.000 L1536.500,33.000 L1536.500,923.000 L0.500,923.000 L0.500,33.000 Z"/>
<path fill-rule="evenodd"  stroke="rgb(0, 190, 255)" stroke-width="1px" stroke-dasharray="0.5, 2" stroke-linecap="round" stroke-linejoin="miter" fill="none"
 d="M466.500,43.000 L1527.500,43.000 L1527.500,914.000 L9.500,914.000 L9.500,42.000 L300.500,42.000 "/>
<path fill-rule="evenodd"  stroke="rgb(0, 190, 255)" stroke-width="1px" stroke-linecap="butt" stroke-linejoin="miter" fill="rgb(0, 190, 255)"
 d="M9.500,42.000 L13.500,42.000 L13.500,46.000 L9.500,46.000 L9.500,42.000 Z"/>
<path fill-rule="evenodd"  stroke="rgb(0, 190, 255)" stroke-width="1px" stroke-linecap="butt" stroke-linejoin="miter" fill="rgb(0, 190, 255)"
 d="M457.500,45.000 L457.500,41.000 L461.500,41.000 L461.500,45.000 L457.500,45.000 ZM449.500,41.000 L453.500,41.000 L453.500,45.000 L449.500,45.000 L449.500,41.000 ZM441.500,41.000 L445.500,41.000 L445.500,45.000 L441.500,45.000 L441.500,41.000 ZM433.500,41.000 L437.500,41.000 L437.500,45.000 L433.500,45.000 L433.500,41.000 ZM425.500,41.000 L429.500,41.000 L429.500,45.000 L425.500,45.000 L425.500,41.000 ZM417.500,41.000 L421.500,41.000 L421.500,45.000 L417.500,45.000 L417.500,41.000 ZM409.500,41.000 L413.500,41.000 L413.500,45.000 L409.500,45.000 L409.500,41.000 ZM401.500,41.000 L405.500,41.000 L405.500,45.000 L401.500,45.000 L401.500,41.000 ZM393.500,41.000 L397.500,41.000 L397.500,45.000 L393.500,45.000 L393.500,41.000 ZM385.500,41.000 L389.500,41.000 L389.500,45.000 L385.500,45.000 L385.500,41.000 ZM377.500,41.000 L381.500,41.000 L381.500,45.000 L377.500,45.000 L377.500,41.000 ZM369.500,41.000 L373.500,41.000 L373.500,45.000 L369.500,45.000 L369.500,41.000 ZM361.500,41.000 L365.500,41.000 L365.500,45.000 L361.500,45.000 L361.500,41.000 ZM353.500,41.000 L357.500,41.000 L357.500,45.000 L353.500,45.000 L353.500,41.000 ZM345.500,41.000 L349.500,41.000 L349.500,45.000 L345.500,45.000 L345.500,41.000 ZM337.500,41.000 L341.500,41.000 L341.500,45.000 L337.500,45.000 L337.500,41.000 ZM329.500,41.000 L333.500,41.000 L333.500,45.000 L329.500,45.000 L329.500,41.000 ZM321.500,41.000 L325.500,41.000 L325.500,45.000 L321.500,45.000 L321.500,41.000 ZM313.500,41.000 L317.500,41.000 L317.500,45.000 L313.500,45.000 L313.500,41.000 ZM305.500,41.000 L309.500,41.000 L309.500,45.000 L305.500,45.000 L305.500,41.000 Z"/>
<path fill-rule="evenodd"  stroke="rgb(0, 190, 255)" stroke-width="1px" stroke-linecap="butt" stroke-linejoin="miter" fill="rgb(0, 190, 255)"
 d="M12.500,556.000 L12.500,552.000 L16.500,552.000 L16.500,556.000 L12.500,556.000 ZM12.500,544.000 L16.500,544.000 L16.500,548.000 L12.500,548.000 L12.500,544.000 ZM12.500,536.000 L16.500,536.000 L16.500,540.000 L12.500,540.000 L12.500,536.000 ZM12.500,528.000 L16.500,528.000 L16.500,532.000 L12.500,532.000 L12.500,528.000 ZM12.500,520.000 L16.500,520.000 L16.500,524.000 L12.500,524.000 L12.500,520.000 ZM12.500,512.000 L16.500,512.000 L16.500,516.000 L12.500,516.000 L12.500,512.000 ZM12.500,504.000 L16.500,504.000 L16.500,508.000 L12.500,508.000 L12.500,504.000 ZM12.500,496.000 L16.500,496.000 L16.500,500.000 L12.500,500.000 L12.500,496.000 ZM12.500,488.000 L16.500,488.000 L16.500,492.000 L12.500,492.000 L12.500,488.000 ZM12.500,480.000 L16.500,480.000 L16.500,484.000 L12.500,484.000 L12.500,480.000 ZM12.500,472.000 L16.500,472.000 L16.500,476.000 L12.500,476.000 L12.500,472.000 ZM12.500,464.000 L16.500,464.000 L16.500,468.000 L12.500,468.000 L12.500,464.000 ZM12.500,456.000 L16.500,456.000 L16.500,460.000 L12.500,460.000 L12.500,456.000 ZM12.500,448.000 L16.500,448.000 L16.500,452.000 L12.500,452.000 L12.500,448.000 ZM12.500,440.000 L16.500,440.000 L16.500,444.000 L12.500,444.000 L12.500,440.000 ZM12.500,432.000 L16.500,432.000 L16.500,436.000 L12.500,436.000 L12.500,432.000 ZM12.500,424.000 L16.500,424.000 L16.500,428.000 L12.500,428.000 L12.500,424.000 ZM12.500,416.000 L16.500,416.000 L16.500,420.000 L12.500,420.000 L12.500,416.000 ZM12.500,408.000 L16.500,408.000 L16.500,412.000 L12.500,412.000 L12.500,408.000 ZM12.500,400.000 L16.500,400.000 L16.500,404.000 L12.500,404.000 L12.500,400.000 Z"/>
<path fill-rule="evenodd"  stroke="rgb(0, 190, 255)" stroke-width="1px" stroke-linecap="butt" stroke-linejoin="miter" fill="rgb(0, 190, 255)"
 d="M1520.500,556.000 L1520.500,552.000 L1524.500,552.000 L1524.500,556.000 L1520.500,556.000 ZM1520.500,544.000 L1524.500,544.000 L1524.500,548.000 L1520.500,548.000 L1520.500,544.000 ZM1520.500,536.000 L1524.500,536.000 L1524.500,540.000 L1520.500,540.000 L1520.500,536.000 ZM1520.500,528.000 L1524.500,528.000 L1524.500,532.000 L1520.500,532.000 L1520.500,528.000 ZM1520.500,520.000 L1524.500,520.000 L1524.500,524.000 L1520.500,524.000 L1520.500,520.000 ZM1520.500,512.000 L1524.500,512.000 L1524.500,516.000 L1520.500,516.000 L1520.500,512.000 ZM1520.500,504.000 L1524.500,504.000 L1524.500,508.000 L1520.500,508.000 L1520.500,504.000 ZM1520.500,496.000 L1524.500,496.000 L1524.500,500.000 L1520.500,500.000 L1520.500,496.000 ZM1520.500,488.000 L1524.500,488.000 L1524.500,492.000 L1520.500,492.000 L1520.500,488.000 ZM1520.500,480.000 L1524.500,480.000 L1524.500,484.000 L1520.500,484.000 L1520.500,480.000 ZM1520.500,472.000 L1524.500,472.000 L1524.500,476.000 L1520.500,476.000 L1520.500,472.000 ZM1520.500,464.000 L1524.500,464.000 L1524.500,468.000 L1520.500,468.000 L1520.500,464.000 ZM1520.500,456.000 L1524.500,456.000 L1524.500,460.000 L1520.500,460.000 L1520.500,456.000 ZM1520.500,448.000 L1524.500,448.000 L1524.500,452.000 L1520.500,452.000 L1520.500,448.000 ZM1520.500,440.000 L1524.500,440.000 L1524.500,444.000 L1520.500,444.000 L1520.500,440.000 ZM1520.500,432.000 L1524.500,432.000 L1524.500,436.000 L1520.500,436.000 L1520.500,432.000 ZM1520.500,424.000 L1524.500,424.000 L1524.500,428.000 L1520.500,428.000 L1520.500,424.000 ZM1520.500,416.000 L1524.500,416.000 L1524.500,420.000 L1520.500,420.000 L1520.500,416.000 ZM1520.500,408.000 L1524.500,408.000 L1524.500,412.000 L1520.500,412.000 L1520.500,408.000 ZM1520.500,400.000 L1524.500,400.000 L1524.500,404.000 L1520.500,404.000 L1520.500,400.000 Z"/>
<path fill-rule="evenodd"  fill="rgb(0, 190, 255)"
 d="M648.500,41.000 L1506.500,41.000 L1506.500,45.000 L648.500,45.000 L648.500,41.000 Z"/>
<path fill-rule="evenodd"  fill="rgb(0, 190, 255)"
 d="M1535.500,810.000 L1535.500,922.000 L1085.500,922.000 L1085.500,918.000 L1531.500,918.000 L1531.500,810.000 L1535.500,810.000 Z"/>
<path fill-rule="evenodd"  stroke="rgb(0, 190, 255)" stroke-width="1px" stroke-linecap="butt" stroke-linejoin="miter" fill="rgb(0, 190, 255)"
 d="M9.500,910.000 L13.500,910.000 L13.500,914.000 L9.500,914.000 L9.500,910.000 Z"/>
<path fill-rule="evenodd"  stroke="rgb(0, 190, 255)" stroke-width="1px" stroke-linecap="butt" stroke-linejoin="miter" fill="rgb(0, 190, 255)"
 d="M1523.500,910.000 L1527.500,910.000 L1527.500,914.000 L1523.500,914.000 L1523.500,910.000 Z"/>
<path fill-rule="evenodd"  fill="rgb(255, 0, 0)"
 d="M0.500,-0.000 L416.500,-0.000 L456.500,34.000 L0.500,34.000 L0.500,-0.000 Z"/>
</svg>