<svg 
 xmlns="http://www.w3.org/2000/svg"
 xmlns:xlink="http://www.w3.org/1999/xlink"
 width="81px" height="65.5px">
<path fill-rule="evenodd"  stroke="rgb(255, 132, 0)" stroke-width="1px" stroke-linecap="butt" stroke-linejoin="miter" opacity="0.4" fill="rgb(255, 255, 255)"
 d="M40.000,32.000 C48.836,32.000 56.000,39.163 56.000,48.000 C56.000,56.836 48.836,64.000 40.000,64.000 C31.163,64.000 24.000,56.836 24.000,48.000 C24.000,39.163 31.163,32.000 40.000,32.000 Z"/>
<path fill-rule="evenodd"  stroke="rgb(255, 132, 0)" stroke-width="2px" stroke-linecap="butt" stroke-linejoin="miter" opacity="0.8" fill="rgb(255, 255, 255)"
 d="M40.000,35.760 C46.759,35.760 52.239,41.240 52.239,48.000 C52.239,54.760 46.759,60.239 40.000,60.239 C33.240,60.239 27.760,54.760 27.760,48.000 C27.760,41.240 33.240,35.760 40.000,35.760 Z"/>
<path fill-rule="evenodd"  fill="rgb(255, 132, 0)"
 d="M40.000,40.000 C44.418,40.000 48.000,43.582 48.000,48.000 C48.000,52.418 44.418,56.000 40.000,56.000 C35.581,56.000 32.000,52.418 32.000,48.000 C32.000,43.582 35.581,40.000 40.000,40.000 Z"/>
<path fill-rule="evenodd"  fill="rgb(255, 132, 0)"
 d="M4.000,-0.000 L76.000,-0.000 C78.209,-0.000 80.000,1.791 80.000,4.000 L80.000,26.000 C80.000,28.209 78.209,30.000 76.000,30.000 L4.000,30.000 C1.791,30.000 -0.000,28.209 -0.000,26.000 L-0.000,4.000 C-0.000,1.791 1.791,-0.000 4.000,-0.000 Z"/>
<path fill-rule="evenodd"  stroke="rgb(255, 255, 255)" stroke-width="2px" stroke-linecap="butt" stroke-linejoin="miter" fill="rgb(255, 0, 0)"
 d="M5.000,3.000 L75.000,3.000 C76.105,3.000 77.000,3.895 77.000,5.000 L77.000,25.000 C77.000,26.105 76.105,27.000 75.000,27.000 L5.000,27.000 C3.895,27.000 3.000,26.105 3.000,25.000 L3.000,5.000 C3.000,3.895 3.895,3.000 5.000,3.000 Z"/>
<path fill-rule="evenodd"  stroke="rgb(255, 132, 0)" stroke-width="2px" stroke-linecap="butt" stroke-linejoin="miter" fill="none"
 d="M40.000,29.000 L40.000,46.000 "/>
</svg>