<svg 
 xmlns="http://www.w3.org/2000/svg"
 xmlns:xlink="http://www.w3.org/1999/xlink"
 width="637.5px" height="354px">
<path fill-rule="evenodd"  stroke="rgb(0, 190, 255)" stroke-width="1px" stroke-linecap="butt" stroke-linejoin="miter" fill="rgb(255, 255, 255)"
 d="M0.500,33.000 L636.500,33.000 L636.500,353.000 L0.500,353.000 L0.500,33.000 Z"/>
<path fill-rule="evenodd"  fill="rgb(255, 255, 255)"
 d="M30.500,53.000 L606.500,53.000 L606.500,323.000 L30.500,323.000 L30.500,53.000 Z"/>
<path fill-rule="evenodd"  stroke="rgb(0, 190, 255)" stroke-width="1px" stroke-dasharray="1, 1" stroke-linecap="butt" stroke-linejoin="miter" fill="rgb(255, 255, 255)"
 d="M386.500,43.000 L627.500,43.000 L627.500,344.000 L9.500,344.000 L9.500,42.000 L220.500,42.000 "/>
<path fill-rule="evenodd"  stroke="rgb(0, 190, 255)" stroke-width="1px" stroke-linecap="butt" stroke-linejoin="miter" fill="rgb(0, 190, 255)"
 d="M9.500,42.000 L13.500,42.000 L13.500,46.000 L9.500,46.000 L9.500,42.000 Z"/>
<path fill-rule="evenodd"  stroke="rgb(0, 190, 255)" stroke-width="1px" stroke-linecap="butt" stroke-linejoin="miter" fill="rgb(0, 190, 255)"
 d="M377.500,45.000 L377.500,41.000 L381.500,41.000 L381.500,45.000 L377.500,45.000 ZM369.500,41.000 L373.500,41.000 L373.500,45.000 L369.500,45.000 L369.500,41.000 ZM361.500,41.000 L365.500,41.000 L365.500,45.000 L361.500,45.000 L361.500,41.000 ZM353.500,41.000 L357.500,41.000 L357.500,45.000 L353.500,45.000 L353.500,41.000 ZM345.500,41.000 L349.500,41.000 L349.500,45.000 L345.500,45.000 L345.500,41.000 ZM337.500,41.000 L341.500,41.000 L341.500,45.000 L337.500,45.000 L337.500,41.000 ZM329.500,41.000 L333.500,41.000 L333.500,45.000 L329.500,45.000 L329.500,41.000 ZM321.500,41.000 L325.500,41.000 L325.500,45.000 L321.500,45.000 L321.500,41.000 ZM313.500,41.000 L317.500,41.000 L317.500,45.000 L313.500,45.000 L313.500,41.000 ZM305.500,41.000 L309.500,41.000 L309.500,45.000 L305.500,45.000 L305.500,41.000 ZM297.500,41.000 L301.500,41.000 L301.500,45.000 L297.500,45.000 L297.500,41.000 ZM289.500,41.000 L293.500,41.000 L293.500,45.000 L289.500,45.000 L289.500,41.000 ZM281.500,41.000 L285.500,41.000 L285.500,45.000 L281.500,45.000 L281.500,41.000 ZM273.500,41.000 L277.500,41.000 L277.500,45.000 L273.500,45.000 L273.500,41.000 ZM265.500,41.000 L269.500,41.000 L269.500,45.000 L265.500,45.000 L265.500,41.000 ZM257.500,41.000 L261.500,41.000 L261.500,45.000 L257.500,45.000 L257.500,41.000 ZM249.500,41.000 L253.500,41.000 L253.500,45.000 L249.500,45.000 L249.500,41.000 ZM241.500,41.000 L245.500,41.000 L245.500,45.000 L241.500,45.000 L241.500,41.000 ZM233.500,41.000 L237.500,41.000 L237.500,45.000 L233.500,45.000 L233.500,41.000 ZM225.500,41.000 L229.500,41.000 L229.500,45.000 L225.500,45.000 L225.500,41.000 Z"/>
<path fill-rule="evenodd"  stroke="rgb(0, 190, 255)" stroke-width="1px" stroke-linecap="butt" stroke-linejoin="miter" fill="rgb(0, 190, 255)"
 d="M12.500,271.000 L12.500,267.000 L16.500,267.000 L16.500,271.000 L12.500,271.000 ZM12.500,259.000 L16.500,259.000 L16.500,263.000 L12.500,263.000 L12.500,259.000 ZM12.500,251.000 L16.500,251.000 L16.500,255.000 L12.500,255.000 L12.500,251.000 ZM12.500,243.000 L16.500,243.000 L16.500,247.000 L12.500,247.000 L12.500,243.000 ZM12.500,235.000 L16.500,235.000 L16.500,239.000 L12.500,239.000 L12.500,235.000 ZM12.500,227.000 L16.500,227.000 L16.500,231.000 L12.500,231.000 L12.500,227.000 ZM12.500,219.000 L16.500,219.000 L16.500,223.000 L12.500,223.000 L12.500,219.000 ZM12.500,211.000 L16.500,211.000 L16.500,215.000 L12.500,215.000 L12.500,211.000 ZM12.500,203.000 L16.500,203.000 L16.500,207.000 L12.500,207.000 L12.500,203.000 ZM12.500,195.000 L16.500,195.000 L16.500,199.000 L12.500,199.000 L12.500,195.000 ZM12.500,187.000 L16.500,187.000 L16.500,191.000 L12.500,191.000 L12.500,187.000 ZM12.500,179.000 L16.500,179.000 L16.500,183.000 L12.500,183.000 L12.500,179.000 ZM12.500,171.000 L16.500,171.000 L16.500,175.000 L12.500,175.000 L12.500,171.000 ZM12.500,163.000 L16.500,163.000 L16.500,167.000 L12.500,167.000 L12.500,163.000 ZM12.500,155.000 L16.500,155.000 L16.500,159.000 L12.500,159.000 L12.500,155.000 ZM12.500,147.000 L16.500,147.000 L16.500,151.000 L12.500,151.000 L12.500,147.000 ZM12.500,139.000 L16.500,139.000 L16.500,143.000 L12.500,143.000 L12.500,139.000 ZM12.500,131.000 L16.500,131.000 L16.500,135.000 L12.500,135.000 L12.500,131.000 ZM12.500,123.000 L16.500,123.000 L16.500,127.000 L12.500,127.000 L12.500,123.000 ZM12.500,115.000 L16.500,115.000 L16.500,119.000 L12.500,119.000 L12.500,115.000 Z"/>
<path fill-rule="evenodd"  stroke="rgb(0, 190, 255)" stroke-width="1px" stroke-linecap="butt" stroke-linejoin="miter" fill="rgb(0, 190, 255)"
 d="M620.500,271.000 L620.500,267.000 L624.500,267.000 L624.500,271.000 L620.500,271.000 ZM620.500,259.000 L624.500,259.000 L624.500,263.000 L620.500,263.000 L620.500,259.000 ZM620.500,251.000 L624.500,251.000 L624.500,255.000 L620.500,255.000 L620.500,251.000 ZM620.500,243.000 L624.500,243.000 L624.500,247.000 L620.500,247.000 L620.500,243.000 ZM620.500,235.000 L624.500,235.000 L624.500,239.000 L620.500,239.000 L620.500,235.000 ZM620.500,227.000 L624.500,227.000 L624.500,231.000 L620.500,231.000 L620.500,227.000 ZM620.500,219.000 L624.500,219.000 L624.500,223.000 L620.500,223.000 L620.500,219.000 ZM620.500,211.000 L624.500,211.000 L624.500,215.000 L620.500,215.000 L620.500,211.000 ZM620.500,203.000 L624.500,203.000 L624.500,207.000 L620.500,207.000 L620.500,203.000 ZM620.500,195.000 L624.500,195.000 L624.500,199.000 L620.500,199.000 L620.500,195.000 ZM620.500,187.000 L624.500,187.000 L624.500,191.000 L620.500,191.000 L620.500,187.000 ZM620.500,179.000 L624.500,179.000 L624.500,183.000 L620.500,183.000 L620.500,179.000 ZM620.500,171.000 L624.500,171.000 L624.500,175.000 L620.500,175.000 L620.500,171.000 ZM620.500,163.000 L624.500,163.000 L624.500,167.000 L620.500,167.000 L620.500,163.000 ZM620.500,155.000 L624.500,155.000 L624.500,159.000 L620.500,159.000 L620.500,155.000 ZM620.500,147.000 L624.500,147.000 L624.500,151.000 L620.500,151.000 L620.500,147.000 ZM620.500,139.000 L624.500,139.000 L624.500,143.000 L620.500,143.000 L620.500,139.000 ZM620.500,131.000 L624.500,131.000 L624.500,135.000 L620.500,135.000 L620.500,131.000 ZM620.500,123.000 L624.500,123.000 L624.500,127.000 L620.500,127.000 L620.500,123.000 ZM620.500,115.000 L624.500,115.000 L624.500,119.000 L620.500,119.000 L620.500,115.000 Z"/>
<path fill-rule="evenodd"  fill="rgb(0, 190, 255)"
 d="M227.500,41.000 L635.500,41.000 L635.500,45.000 L227.500,45.000 L227.500,41.000 Z"/>
<path fill-rule="evenodd"  fill="rgb(0, 190, 255)"
 d="M635.500,240.000 L635.500,352.000 L185.500,352.000 L185.500,348.000 L631.500,348.000 L631.500,240.000 L635.500,240.000 Z"/>
<path fill-rule="evenodd"  stroke="rgb(0, 190, 255)" stroke-width="1px" stroke-linecap="butt" stroke-linejoin="miter" fill="rgb(0, 190, 255)"
 d="M9.500,340.000 L13.500,340.000 L13.500,344.000 L9.500,344.000 L9.500,340.000 Z"/>
<path fill-rule="evenodd"  stroke="rgb(0, 190, 255)" stroke-width="1px" stroke-linecap="butt" stroke-linejoin="miter" fill="rgb(0, 190, 255)"
 d="M623.500,340.000 L627.500,340.000 L627.500,344.000 L623.500,344.000 L623.500,340.000 Z"/>
<path fill-rule="evenodd"  fill="rgb(0, 190, 255)"
 d="M0.500,-0.000 L416.500,-0.000 L456.500,34.000 L0.500,34.000 L0.500,-0.000 Z"/>
</svg>