<svg 
 xmlns="http://www.w3.org/2000/svg"
 xmlns:xlink="http://www.w3.org/1999/xlink"
 width="458px" height="542px">
<defs>
<linearGradient id="PSgrad_0" x1="0%" x2="100%" y1="0%" y2="0%">
  <stop offset="0%" stop-color="rgb(255,255,255)" stop-opacity="1" />
  <stop offset="100%" stop-color="rgb(255,255,255)" stop-opacity="0.8" />
</linearGradient>

</defs>
<path fill-rule="evenodd"  fill="rgb(255, 0, 0)"
 d="M21.500,-0.000 L361.499,-0.000 L371.500,7.000 L28.500,7.000 L28.500,440.000 L21.500,430.000 L21.500,-0.000 Z"/>
<path fill-rule="evenodd"  fill="url(#PSgrad_0)"
 d="M27.500,6.000 L457.500,6.000 L457.500,450.000 L427.500,476.000 L27.500,476.000 L27.500,6.000 Z"/>
<path fill-rule="evenodd"  stroke="rgb(255, 0, 0)" stroke-width="1px" stroke-linecap="butt" stroke-linejoin="miter" fill="none"
 d="M4.500,535.000 L64.500,474.000 L241.500,474.000 "/>
<path fill-rule="evenodd"  stroke="rgb(255, 0, 0)" stroke-width="1px" stroke-linecap="butt" stroke-linejoin="miter" fill="rgb(255, 255, 255)"
 d="M4.562,532.000 C6.806,532.000 8.625,533.819 8.625,536.062 C8.625,538.306 6.806,540.125 4.562,540.125 C2.319,540.125 0.500,538.306 0.500,536.062 C0.500,533.819 2.319,532.000 4.562,532.000 Z"/>
<path fill-rule="evenodd"  fill="rgb(255, 0, 0)"
 d="M47.500,56.000 L457.500,56.000 L457.500,57.000 L47.500,57.000 L47.500,56.000 Z"/>
<path fill-rule="evenodd"  stroke="rgb(255, 0, 0)" stroke-width="1px" stroke-linecap="butt" stroke-linejoin="miter" fill="none"
 d="M32.500,372.000 L32.500,471.000 L422.500,471.000 L452.500,446.000 L452.500,227.000 "/>
<path fill-rule="evenodd"  fill="rgb(255, 0, 0)"
 d="M83.500,470.000 L79.500,470.000 L81.500,467.000 L85.500,467.000 L83.500,470.000 ZM73.500,470.000 L75.500,467.000 L79.500,467.000 L77.500,470.000 L73.500,470.000 ZM67.500,470.000 L69.500,467.000 L73.500,467.000 L71.500,470.000 L67.500,470.000 ZM61.500,470.000 L63.500,467.000 L67.500,467.000 L65.500,470.000 L61.500,470.000 ZM55.500,470.000 L57.500,467.000 L61.500,467.000 L59.500,470.000 L55.500,470.000 ZM49.500,470.000 L51.500,467.000 L55.500,467.000 L53.500,470.000 L49.500,470.000 ZM43.500,470.000 L45.500,467.000 L49.500,467.000 L47.500,470.000 L43.500,470.000 ZM37.500,470.000 L39.500,467.000 L43.500,467.000 L41.500,470.000 L37.500,470.000 Z"/>
<path fill-rule="evenodd"  fill="rgb(255, 0, 0)"
 d="M403.500,52.000 L407.500,52.000 L405.500,55.000 L401.500,55.000 L403.500,52.000 ZM413.500,52.000 L411.500,55.000 L407.500,55.000 L409.500,52.000 L413.500,52.000 ZM419.500,52.000 L417.500,55.000 L413.500,55.000 L415.500,52.000 L419.500,52.000 ZM425.500,52.000 L423.500,55.000 L419.500,55.000 L421.500,52.000 L425.500,52.000 ZM431.500,52.000 L429.500,55.000 L425.500,55.000 L427.500,52.000 L431.500,52.000 ZM437.500,52.000 L435.500,55.000 L431.500,55.000 L433.500,52.000 L437.500,52.000 ZM443.500,52.000 L441.500,55.000 L437.500,55.000 L439.500,52.000 L443.500,52.000 ZM449.500,52.000 L447.500,55.000 L443.500,55.000 L445.500,52.000 L449.500,52.000 Z"/>
</svg>