<svg 
 xmlns="http://www.w3.org/2000/svg"
 xmlns:xlink="http://www.w3.org/1999/xlink"
 width="148px" height="63px">
<defs>
<linearGradient id="PSgrad_0" x1="0%" x2="100%" y1="0%" y2="0%">
  <stop offset="0%" stop-color="rgb(0,190,255)" stop-opacity="0.2" />
  <stop offset="100%" stop-color="rgb(0,190,255)" stop-opacity="1" />
</linearGradient>

</defs>
<path fill-rule="evenodd"  stroke="rgb(0, 190, 255)" stroke-width="2px" stroke-linecap="butt" stroke-linejoin="miter" fill="none"
 d="M122.500,1.000 L131.500,1.000 L143.500,15.000 L143.500,47.000 L131.500,61.000 L122.500,61.000 M24.500,61.000 L15.500,61.000 L3.500,47.000 L3.500,15.000 L15.500,1.000 L24.500,1.000 "/>
<path fill-rule="evenodd"  stroke="rgb(0, 190, 255)" stroke-width="1px" stroke-linecap="butt" stroke-linejoin="miter" fill="none"
 d="M137.500,4.000 L139.500,4.000 L146.500,12.000 L146.500,50.000 L139.500,58.000 L137.500,58.000 M9.500,58.000 L7.500,58.000 L0.500,50.000 L0.500,12.000 L7.500,4.000 L9.500,4.000 "/>
<path fill-rule="evenodd"  fill="url(#PSgrad_0)"
 d="M98.500,35.000 L98.500,31.000 L102.500,31.000 L102.500,35.000 L98.500,35.000 ZM92.500,31.000 L96.500,31.000 L96.500,35.000 L92.500,35.000 L92.500,31.000 ZM86.500,31.000 L90.500,31.000 L90.500,35.000 L86.500,35.000 L86.500,31.000 ZM80.500,31.000 L84.500,31.000 L84.500,35.000 L80.500,35.000 L80.500,31.000 ZM74.500,31.000 L78.500,31.000 L78.500,35.000 L74.500,35.000 L74.500,31.000 ZM68.500,31.000 L72.500,31.000 L72.500,35.000 L68.500,35.000 L68.500,31.000 ZM62.500,31.000 L66.500,31.000 L66.500,35.000 L62.500,35.000 L62.500,31.000 ZM56.500,31.000 L60.500,31.000 L60.500,35.000 L56.500,35.000 L56.500,31.000 ZM50.500,31.000 L54.500,31.000 L54.500,35.000 L50.500,35.000 L50.500,31.000 ZM44.500,31.000 L48.500,31.000 L48.500,35.000 L44.500,35.000 L44.500,31.000 Z"/>
</svg>